<svg xmlns="http://www.w3.org/2000/svg" width="34.843" height="34.87" viewBox="0 0 34.843 34.87">
  <defs>
    <style>
      .cls-1 {
        fill: #ada074;
        fill-rule: evenodd;
      }
    </style>
  </defs>
  <path id="Cog" class="cls-1" d="M977.517,1526.64v5.88h-6.362a11.481,11.481,0,0,1-1.192,2.81l4.527,4.54-4.148,4.15-4.548-4.56a11.522,11.522,0,0,1-2.811,1.18V1547h-5.865v-6.31a11.427,11.427,0,0,1-2.964-1.23l-4.548,4.56-4.148-4.15,4.527-4.54a11.481,11.481,0,0,1-1.192-2.81h-6.1v-5.88h6a11.582,11.582,0,0,1,1.247-3.06l-4.219-4.23,4.148-4.15,4.2,4.2a11.649,11.649,0,0,1,3.056-1.27v-6.02h5.865v6.07a11.741,11.741,0,0,1,2.9,1.22l4.2-4.2,4.148,4.15-4.219,4.23a11.582,11.582,0,0,1,1.247,3.06h6.258Zm-17.726-2.87a5.73,5.73,0,1,0,5.718,5.73A5.728,5.728,0,0,0,959.791,1523.77Z" transform="translate(-942.688 -1512.13)"/>
</svg>
