<svg xmlns="http://www.w3.org/2000/svg" width="37.688" height="34.87" viewBox="0 0 37.688 34.87">
  <defs>
    <style>
      .cls-1 {
        fill: #ada074;
        fill-rule: evenodd;
      }
    </style>
  </defs>
  <path id="Monitor" class="cls-1" d="M670.558,1537.49H639.144a3.157,3.157,0,0,1-3.142-3.17v-19.04a3.157,3.157,0,0,1,3.142-3.17h31.414a3.157,3.157,0,0,1,3.142,3.17v19.04A3.157,3.157,0,0,1,670.558,1537.49Zm0-19.03a3.158,3.158,0,0,0-3.141-3.18H642.285a3.158,3.158,0,0,0-3.141,3.18v12.68a3.165,3.165,0,0,0,3.141,3.18h25.132a3.165,3.165,0,0,0,3.141-3.18v-12.68Zm-21.99,22.2h12.566v3.17h6.283V1547H642.285v-3.17h6.283v-3.17Z" transform="translate(-636 -1512.13)"/>
</svg>
